<svg version="1.1" id="Vrstva_1" xmlns="http://www.w3.org/2000/svg" x="0" y="0" viewBox="0 0 172 67" xml:space="preserve"><style>.st0{fill:#006364}.st1{fill:#4ebcbd}.st2{fill:#fff}</style><path class="st0" d="M75.3 61h-1.7c-.2 0-.4-.2-.4-.4V49.3c0-.2.2-.4.4-.4h1.7c.2 0 .4.2.4.4v11.4c0 .2-.2.3-.4.3M81.4 50.7H81v8.5h.4c.9 0 1.2-.9 1.2-4.3 0-3.3-.3-4.2-1.2-4.2m.3 10.3H79c-.2 0-.4-.2-.4-.4V49.3c0-.2.2-.4.4-.4h2.7c2 0 3.3 1.5 3.3 6S83.7 61 81.7 61M92 61h-4c-.2 0-.4-.2-.4-.4V49.3c0-.2.2-.4.4-.4h4c.2 0 .4.2.4.4v1.2c0 .2-.2.4-.4.4h-1.9v2.9h1.6c.2 0 .4.2.4.4v1.2c0 .2-.2.4-.4.4h-1.6v3.5h2c.2 0 .4.2.4.4v1.2c-.1 0-.3.1-.5.1M100.8 61h-1.5c-.2 0-.3-.1-.4-.3l-1.4-5c-.3-.9-.4-1.5-.4-1.7 0-.2 0-.2-.1-.2v.2c0 .3.1 1.1.1 1.7v4.9c0 .2-.2.4-.4.4h-1.4c-.2 0-.4-.2-.4-.4V49.3c0-.2.2-.4.4-.4h1.5c.2 0 .3.1.4.3l1.4 5c.3.9.4 1.5.4 1.7 0 .2 0 .2.1.2s.1-.1.1-.2c0-.3-.1-1.1-.1-1.7v-4.9c0-.2.2-.4.4-.4h1.4c.2 0 .4.2.4.4v11.4c-.1.2-.3.3-.5.3M109.2 50.8h-1.5v9.8c0 .2-.2.4-.4.4h-1.7c-.2 0-.4-.2-.4-.4v-9.8h-1.5c-.2 0-.4-.2-.4-.4v-1.2c0-.2.2-.4.4-.4h5.4c.2 0 .4.2.4.4v1.2c.1.3-.1.4-.3.4M113.9 61h-1.7c-.2 0-.4-.2-.4-.4V49.3c0-.2.2-.4.4-.4h1.7c.2 0 .4.2.4.4v11.4c-.1.2-.2.3-.4.3M122.2 50.8h-1.5v9.8c0 .2-.2.4-.4.4h-1.7c-.2 0-.4-.2-.4-.4v-9.8h-1.5c-.2 0-.4-.2-.4-.4v-1.2c0-.2.2-.4.4-.4h5.4c.2 0 .4.2.4.4v1.2c.1.3-.1.4-.3.4M130.9 49.9l-2.1 6.7v4c0 .2-.2.4-.4.4h-1.7c-.2 0-.4-.2-.4-.4v-4l-2.1-6.7c-.1-.2-.2-.5-.2-.6 0-.2.2-.4.4-.4h1.6c.2 0 .4.1.4.4l.7 3.2c.1.5.2 1.3.2 1.4s0 .2.1.2.1-.1.1-.2.1-.9.2-1.4l.7-3.2c.1-.3.2-.4.4-.4h1.6c.2 0 .4.1.4.4.3.1.2.4.1.6M140.8 61.1c-2.4 0-3.3-1.8-3.3-6.2s.9-6.2 3.3-6.2c1.6 0 2.8.9 2.8 3.7 0 .3-.2.5-.5.5h-1.3c-.3 0-.4-.2-.3-.6.1-1.2-.1-1.7-.7-1.7-.8 0-.8.9-.8 4.3s0 4.3.8 4.3c.6 0 .8-.5.7-1.8 0-.4.1-.6.3-.6h1.3c.2 0 .5.1.5.5 0 2.9-1.2 3.8-2.8 3.8M148.9 54.2c-.1-.4-.2-1.8-.2-2s0-.2-.1-.2-.1.1-.1.2-.1 1.5-.2 2l-.4 2.4h1.4l-.4-2.4zm2.9 6.8h-1.5c-.2 0-.3-.1-.4-.3l-.4-2.5h-1.8l-.4 2.5c0 .2-.2.3-.4.3h-1.5c-.2 0-.3-.1-.3-.3 0-.2.1-.5.1-.7l2.1-10.7c0-.2.2-.3.4-.3h1.8c.2 0 .3.1.4.3L152 60c0 .2.1.5.1.7 0 .2-.1.3-.3.3M157.3 50.6h-.5v4h.5c.8 0 1-.5 1-2 .1-1.5-.1-2-1-2M161 61h-1.4c-.9 0-1.1-.4-1.3-1.5l-.7-3c-.1-.3-.2-.4-.5-.4h-.3v4.5c0 .2-.2.4-.4.4h-1.7c-.2 0-.4-.2-.4-.4V49.3c0-.2.2-.4.4-.4h3c2.1 0 2.9 1.3 2.9 3.5 0 1.8-.5 3-1.8 3.4.7.2.9.5 1.1 1.5l.7 2.7c.1.2.1.3.2.4.1.1.2.1.2.3.4.2.2.3 0 .3M166.4 50.7h-.4v8.5h.4c.9 0 1.2-.9 1.2-4.3-.1-3.3-.3-4.2-1.2-4.2m.2 10.3H164c-.2 0-.4-.2-.4-.4V49.3c0-.2.2-.4.4-.4h2.7c2 0 3.3 1.5 3.3 6s-1.3 6.1-3.4 6.1"/><path class="st1" d="M78.8 45.9c-3.9 0-5.5-2.3-5.5-7.6 0-.7.5-.9 1-.9h2.5c.5 0 .7.3.7 1.1-.1 2.4.2 3.6 1.4 3.6 1.4 0 1.6-.9 1.6-3.2 0-2-1-3.2-2.8-4.1-2.8-1.3-4.3-3.5-4.3-6.9 0-4.9 2.4-6.6 5.9-6.6 3.8 0 5.5 2.1 5.5 7.1 0 .7-.5.9-1 .9h-2.5c-.5 0-.8-.3-.7-1 .2-2.2-.1-3.2-1.4-3.2-1.2 0-1.5.7-1.5 2.9 0 1.7.8 2.9 2.5 3.7 2.8 1.3 4.7 3.6 4.7 7-.2 5.1-2.1 7.2-6.1 7.2M97.4 25.3h-3v19.6c0 .4-.3.7-.7.7h-3.3c-.4 0-.7-.3-.7-.7V25.3h-3c-.4 0-.7-.3-.7-.7v-2.4c0-.4.3-.7.7-.7h10.7c.4 0 .7.3.7.7v2.4c0 .4-.3.7-.7.7M106.3 45.9c-4.2 0-6.3-1.9-6.3-9V22.2c0-.4.3-.7.7-.7h3.3c.4 0 .7.3.7.7V37c0 4.2.3 5.1 1.5 5.1s1.5-.9 1.5-5.1V22.2c0-.4.3-.7.7-.7h3.3c.4 0 .7.3.7.7V37c.2 7-1.9 8.9-6.1 8.9M121.4 25h-.8v17h.8c1.8 0 2.3-1.9 2.3-8.6 0-6.5-.5-8.4-2.3-8.4m.6 20.6h-5.3c-.4 0-.7-.3-.7-.7V22.2c0-.4.3-.7.7-.7h5.3c4 0 6.5 3 6.5 12S126 45.6 122 45.6M140.1 45.6h-8c-.4 0-.7-.3-.7-.7V22.2c0-.4.3-.7.7-.7h7.9c.4 0 .7.3.7.7v2.4c0 .4-.3.7-.7.7h-3.8V31h3.2c.4 0 .7.3.7.7v2.4c0 .4-.3.7-.7.7h-3.2v6.9h3.9c.4 0 .7.3.7.7v2.4c0 .5-.3.8-.7.8M155.1 45.6h-2.9c-.4 0-.6-.3-.7-.6l-2.8-10c-.5-1.9-.8-3-.9-3.4 0-.3-.1-.3-.2-.3s-.2.1-.1.4c0 .5.1 2.1.1 3.3v9.9c0 .4-.3.7-.7.7H144c-.4 0-.7-.3-.7-.7V22.2c0-.4.3-.7.7-.7h2.9c.4 0 .6.3.7.6l2.8 10c.5 1.9.8 3 .9 3.4 0 .3.1.3.2.3s.1-.1.1-.4c0-.5-.1-2.1-.1-3.3v-9.9c0-.4.3-.7.7-.7h2.9c.4 0 .7.3.7.7V45c0 .3-.3.6-.7.6M169.2 25.3h-3v19.6c0 .4-.3.7-.7.7h-3.3c-.4 0-.7-.3-.7-.7V25.3h-3c-.4 0-.7-.3-.7-.7v-2.4c0-.4.3-.7.7-.7h10.7c.4 0 .7.3.7.7v2.4c.1.4-.2.7-.7.7"/><path class="st0" d="M75.3 18.2h-1.7c-.2 0-.4-.2-.4-.4V6.4c0-.2.2-.4.4-.4h1.7c.2 0 .4.2.4.4v11.4c0 .2-.2.4-.4.4M84.3 18.2h-1.5c-.2 0-.3-.1-.4-.3l-1.4-5c-.3-.9-.4-1.5-.4-1.7 0-.2 0-.2-.1-.2s-.1.1-.1.2c0 .3.1 1.1.1 1.7v4.9c0 .2-.2.4-.4.4h-1.4c-.2 0-.4-.2-.4-.4V6.4c0-.2.2-.4.4-.4h1.5c.2 0 .3.1.4.3l1.4 5c.3.9.4 1.5.4 1.7 0 .1 0 .2.1.2s.1-.1.1-.2c0-.3-.1-1.1-.1-1.7V6.4c0-.2.2-.4.4-.4h1.4c.2 0 .4.2.4.4v11.4c0 .2-.2.4-.4.4M92.4 8h-1.5v9.8c0 .2-.2.4-.4.4h-1.7c-.2 0-.4-.2-.4-.4V8H87c-.2 0-.4-.2-.4-.4V6.4c0-.2.2-.4.4-.4h5.4c.2 0 .4.2.4.4v1.2c-.1.3-.2.4-.4.4M99 18.2h-4c-.2 0-.4-.2-.4-.4V6.4c0-.2.2-.4.4-.4h4c.2 0 .4.2.4.4v1.2c-.1.3-.2.4-.4.4h-1.9v2.9h1.6c.2 0 .4.2.4.4v1.2c0 .2-.2.4-.4.4h-1.6v3.5h2c.2 0 .4.2.4.4V18c-.1 0-.3.2-.5.2M104.4 7.8h-.4v4h.5c.8 0 1-.5 1-2s-.2-2-1.1-2m3.7 10.4h-1.4c-.9 0-1.1-.4-1.3-1.5l-.7-3c-.1-.3-.2-.4-.5-.4h-.2v4.5c0 .2-.2.4-.4.4h-1.7c-.2 0-.4-.2-.4-.4V6.4c0-.2.2-.4.4-.4h3c2.1 0 2.9 1.3 2.9 3.5 0 1.8-.5 3-1.8 3.4.7.2.9.5 1.1 1.5l.7 2.7c.1.2.1.3.2.4.1.1.2.1.2.3.2.2.1.4-.1.4M116.3 18.2h-1.5c-.2 0-.3-.1-.4-.3l-1.4-5c-.3-.9-.4-1.5-.4-1.7 0-.2 0-.2-.1-.2s-.1.1-.1.2c0 .3.1 1.1.1 1.7v4.9c0 .2-.2.4-.4.4h-1.4c-.2 0-.4-.2-.4-.4V6.4c0-.2.2-.4.4-.4h1.5c.2 0 .3.1.4.3l1.4 5c.3.9.4 1.5.4 1.7 0 .1 0 .2.1.2s.1-.1.1-.2c0-.3-.1-1.1-.1-1.7V6.4c0-.2.2-.4.4-.4h1.4c.2 0 .4.2.4.4v11.4c0 .2-.2.4-.4.4M122.6 11.4c-.1-.4-.2-1.8-.2-2 0-.2 0-.2-.1-.2s-.1.1-.1.2c0 .2-.1 1.5-.2 2l-.4 2.4h1.4l-.4-2.4zm2.8 6.8h-1.5c-.2 0-.3-.1-.4-.3l-.4-2.5h-1.8l-.4 2.5c0 .2-.2.3-.4.3H119c-.2 0-.3-.1-.3-.3 0-.2.1-.5.1-.7L121 6.4c0-.2.2-.3.4-.3h1.8c.2 0 .3.1.4.3l2.1 10.7c0 .2.1.5.1.7 0 .2-.2.4-.4.4M132 8h-1.5v9.8c0 .2-.2.4-.4.4h-1.7c-.2 0-.4-.2-.4-.4V8h-1.5c-.2 0-.4-.2-.4-.4V6.4c0-.2.2-.4.4-.4h5.4c.2 0 .4.2.4.4v1.2c.1.3-.1.4-.3.4M136.4 18.2h-1.7c-.2 0-.4-.2-.4-.4V6.4c0-.2.2-.4.4-.4h1.7c.2 0 .4.2.4.4v11.4c0 .2-.2.4-.4.4M142.3 7.9c-.5 0-.8.3-.8 4.2s.2 4.3.8 4.3.8-.3.8-4.3-.2-4.2-.8-4.2m0 10.4c-1.9 0-3.2-1-3.2-6.2s1.3-6.2 3.2-6.2 3.2 1 3.2 6.2-1.3 6.2-3.2 6.2M153.8 18.2h-1.5c-.2 0-.3-.1-.4-.3l-1.4-5c-.3-.9-.4-1.5-.4-1.7 0-.2 0-.2-.1-.2s-.1.1-.1.2c0 .3.1 1.1.1 1.7v4.9c0 .2-.2.4-.4.4h-1.4c-.2 0-.4-.2-.4-.4V6.4c0-.2.2-.4.4-.4h1.5c.2 0 .3.1.4.3l1.4 5c.3.9.4 1.5.4 1.7 0 .1 0 .2.1.2s.1-.1.1-.2c0-.3-.1-1.1-.1-1.7V6.4c0-.2.2-.4.4-.4h1.4c.2 0 .4.2.4.4v11.4c0 .2-.1.4-.4.4M160.1 11.4c-.1-.4-.2-1.8-.2-2 0-.2 0-.2-.1-.2s-.1.1-.1.2c0 .2-.1 1.5-.2 2l-.4 2.4h1.4l-.4-2.4zm2.8 6.8h-1.5c-.2 0-.3-.1-.4-.3l-.4-2.5h-1.8l-.4 2.5c0 .2-.2.3-.4.3h-1.5c-.2 0-.3-.1-.3-.3 0-.2.1-.5.1-.7l2.1-10.7c0-.2.2-.3.4-.3h1.8c.2 0 .3.1.4.3l2.1 10.7c0 .2.1.5.1.7.1.1-.1.3-.3.3M169.6 18.2h-3.9c-.2 0-.4-.2-.4-.4V6.4c0-.2.2-.4.4-.4h1.7c.2 0 .4.2.4.4v9.8h1.9c.2 0 .4.2.4.4v1.2c-.1.2-.2.4-.5.4"/><path class="st1" d="M67.6 33.6c0 18.7-15.2 33.8-33.8 33.8C15.1 67.4 0 52.2 0 33.6S15.1-.3 33.8-.3c18.7 0 33.8 15.2 33.8 33.9"/><path class="st2" d="M16.4 45.6H13c-.4 0-.7-.3-.7-.7V22.2c0-.4.3-.7.7-.7h3.3c.4 0 .7.3.7.7V45c.1.3-.2.6-.6.6M26.1 45.9c-3.9 0-5.5-2.3-5.5-7.6 0-.7.5-.9 1-.9H24c.5 0 .7.3.7 1.1-.1 2.4.2 3.6 1.4 3.6 1.4 0 1.6-.9 1.6-3.2 0-2-1-3.2-2.8-4.1-2.8-1.3-4.3-3.5-4.3-6.9 0-4.9 2.4-6.6 5.9-6.6 3.8 0 5.5 2.1 5.5 7.1 0 .7-.5.9-1 .9h-2.5c-.5 0-.8-.3-.7-1 .2-2.2-.1-3.2-1.4-3.2-1.2 0-1.5.7-1.5 2.9 0 1.7.8 2.9 2.5 3.7 2.8 1.3 4.7 3.5 4.7 7-.1 5.1-2 7.2-6 7.2M39.6 45.6h-3.3c-.4 0-.7-.3-.7-.7V22.2c0-.4.3-.7.7-.7h3.3c.4 0 .7.3.7.7V45c.1.3-.3.6-.7.6M50.4 45.9c-4.7 0-6.6-3.5-6.6-12.3s1.9-12.3 6.6-12.3c3.2 0 5.6 1.7 5.6 7.4 0 .7-.5.9-.9.9h-2.6c-.5 0-.7-.4-.7-1.1.2-2.5-.2-3.5-1.4-3.5-1.6 0-1.7 1.8-1.7 8.5 0 6.8.1 8.6 1.7 8.6 1.1 0 1.5-1.1 1.4-3.6 0-.7.1-1.1.7-1.1h2.6c.5 0 .9.3.9.9 0 5.8-2.3 7.6-5.6 7.6"/></svg>