<svg version="1.1" id="Vrstva_1" xmlns="http://www.w3.org/2000/svg" x="0" y="0" viewBox="0 0 116.5 90.6" xml:space="preserve"><style>.st3{fill:#00a2e5}</style><path fill="none" d="M-15.1-15.1h146.8v120.6H-15.1z"/><path d="M35.2 90.1v-6c.1-2-1.3-3.7-3.3-3.8h-.5c-1.3-.1-2.6.6-3.4 1.7-.7-1.1-1.9-1.8-3.2-1.7-1.1-.1-2.2.5-2.8 1.4v-1.2h-2.1V90H22v-5.3c-.2-1.2.7-2.3 1.9-2.5h.4c1.4 0 2.1.9 2.1 2.5V90h2.1v-5.3c-.2-1.2.7-2.4 1.9-2.5h.4c1.4 0 2.1.9 2.1 2.5V90h2.3zm11.7-4.8v-4.8h-2.1v1.2c-.7-.9-1.8-1.4-3-1.4-2.8.1-4.9 2.5-4.8 5.3.1 2.6 2.2 4.6 4.8 4.8 1.2.1 2.3-.5 3-1.4v1.2h2.1v-4.9zm-7.7 0c.1-1.6 1.5-2.8 3.1-2.7 1.6.1 2.8 1.5 2.7 3.1-.1 1.5-1.3 2.7-2.9 2.7-1.6 0-2.9-1.2-2.9-2.8v-.3zm52.2-5c.7 0 1.4.1 2 .4.6.2 1.2.6 1.6 1.1.5.5.8 1 1.1 1.6.5 1.3.5 2.7 0 4-.2.6-.6 1.1-1.1 1.6-.5.5-1 .8-1.6 1.1-1.3.5-2.8.5-4.1 0-.6-.2-1.2-.6-1.6-1.1-.5-.5-.8-1-1.1-1.6-.5-1.3-.5-2.7 0-4 .2-.6.6-1.1 1.1-1.6.5-.5 1-.8 1.6-1.1.7-.3 1.4-.4 2.1-.4zm0 2c-.4 0-.8.1-1.2.2-.4.1-.7.4-.9.6-.3.3-.5.6-.6 1-.3.8-.3 1.7 0 2.5.1.4.4.7.6 1 .3.3.6.5.9.6.8.3 1.6.3 2.4 0 .4-.1.7-.4 1-.6.3-.3.5-.6.6-1 .3-.8.3-1.7 0-2.5-.1-.4-.4-.7-.6-1-.3-.3-.6-.5-1-.6-.4-.2-.8-.2-1.2-.2zm-33.2 3c0-3-1.9-5-4.5-5-2.8.1-4.9 2.5-4.7 5.3.1 2.6 2.3 4.7 4.9 4.8 1.4.1 2.8-.4 3.9-1.3l-1-1.5c-.8.6-1.8 1-2.8 1-1.4.1-2.7-.9-2.9-2.3h7.1v-1zm-7.1-.8c.1-1.3 1.2-2.4 2.5-2.3 1.3 0 2.4 1 2.4 2.3h-4.9zM67 83c-.9-.5-1.9-.8-3-.8s-1.8.4-1.8 1.1c0 .6.7.8 1.6.9l1 .1c2.1.3 3.3 1.2 3.3 2.9 0 1.8-1.6 3.1-4.4 3.1-1.5 0-2.9-.4-4.1-1.2l1-1.6c.9.7 2 1 3.2 1 1.4 0 2.2-.4 2.2-1.2 0-.5-.5-.8-1.7-1l-1-.1c-2.1-.3-3.3-1.3-3.3-2.8 0-1.9 1.6-3.1 4-3.1 1.4 0 2.7.3 3.9 1L67 83zm10-.5h-3.4v4.3c0 1 .3 1.6 1.4 1.6.6 0 1.3-.2 1.8-.5l.6 1.8c-.8.5-1.7.7-2.6.7-2.5 0-3.3-1.3-3.3-3.5v-4.4h-1.9v-1.9h1.9v-2.9h2.1v2.9H77v1.9zm7.1-2.2c.5 0 1 .1 1.5.3l-.6 2c-.4-.2-.9-.2-1.3-.2-1.4 0-2 .9-2 2.5v5.4h-2.1v-9.5h2.1V82c.4-1.2 1.4-1.7 2.4-1.7zm14.4 8.4c.1 0 .3 0 .4.1.1 0 .2.1.3.2.1.1.2.2.2.3.1.2.1.5 0 .7 0 .1-.1.2-.2.3-.1.1-.2.2-.3.2-.1.1-.2.1-.4.1-.4 0-.7-.2-.9-.6-.1-.2-.1-.5 0-.7 0-.1.1-.2.2-.3.1-.1.2-.2.3-.2.2-.1.3-.1.4-.1zm0 1.7c.1 0 .2 0 .3-.1.1 0 .2-.1.2-.2.3-.3.3-.8 0-1 0 0-.1-.1-.2-.1s-.2-.1-.3-.1c-.1 0-.2 0-.3.1-.1 0-.2.1-.2.2-.3.3-.3.8 0 1 .1.1.3.2.5.2zm.1-1.2c.1 0 .2 0 .3.1.1.1.1.1.1.2s0 .1-.1.2-.1.1-.2.1l.3.3h-.2l-.3-.3h-.1v.3h-.2v-.9h.4zm-.2.2v.2H98.7v-.1-.1H98.4z"/><path fill="#7375cf" d="M42.5 7.7H74v56.6H42.5z"/><path d="M44.5 36c0-11 5.1-21.5 13.7-28.3C42.6-4.6 20-1.9 7.7 13.8S-1.9 52 13.8 64.3c13.1 10.3 31.4 10.3 44.5 0C49.6 57.5 44.5 47 44.5 36z" fill="#eb001b"/><path class="st3" d="M113.1 58.3v-1.2h.5v-.2h-1.2v.2h.5v1.2h.2zm2.3 0v-1.4h-.4l-.4 1-.4-1h-.4v1.4h.3v-1.1l.4.9h.3l.4-.9v1.1h.2zM116.5 36c0 19.9-16.1 36-36 36-8.1 0-15.9-2.7-22.2-7.7 15.6-12.3 18.3-34.9 6-50.6-1.8-2.2-3.8-4.3-6-6 15.6-12.3 38.3-9.6 50.5 6.1 5 6.3 7.7 14.1 7.7 22.2z"/></svg>